<?xml version="1.0" encoding="UTF-8" standalone="no"?>
<!DOCTYPE svg PUBLIC "-//W3C//DTD SVG 1.1//EN"
 "http://www.w3.org/Graphics/SVG/1.1/DTD/svg11.dtd">
<!-- Generated by graphviz version 12.2.1 (20241206.2353)
 -->
<!-- Title: dependency&#45;cruiser output Pages: 1 -->
<svg width="372pt" height="298pt"
 viewBox="0.00 0.00 372.00 298.00" xmlns="http://www.w3.org/2000/svg" xmlns:xlink="http://www.w3.org/1999/xlink">
<g id="graph0" class="graph" transform="scale(1 1) rotate(0) translate(4 294)">
<title>dependency&#45;cruiser output</title>
<polygon fill="white" stroke="none" points="-4,4 -4,-294 368,-294 368,4 -4,4"/>
<g id="clust1" class="cluster">
<title>cluster_src</title>
<path fill="#ffffff" stroke="black" stroke-width="2" d="M20,-8C20,-8 344,-8 344,-8 350,-8 356,-14 356,-20 356,-20 356,-270 356,-270 356,-276 350,-282 344,-282 344,-282 20,-282 20,-282 14,-282 8,-276 8,-270 8,-270 8,-20 8,-20 8,-14 14,-8 20,-8"/>
<text text-anchor="middle" x="182" y="-269.45" font-family="Helvetica,sans-Serif" font-weight="bold" font-size="9.00">src</text>
</g>
<g id="clust2" class="cluster">
<title>cluster_src/config</title>
<path fill="#ffffff" stroke="black" stroke-width="2" d="M178.62,-26C178.62,-26 252.62,-26 252.62,-26 258.62,-26 264.62,-32 264.62,-38 264.62,-38 264.62,-66 264.62,-66 264.62,-72 258.62,-78 252.62,-78 252.62,-78 178.62,-78 178.62,-78 172.62,-78 166.62,-72 166.62,-66 166.62,-66 166.62,-38 166.62,-38 166.62,-32 172.62,-26 178.62,-26"/>
<text text-anchor="middle" x="215.62" y="-65.45" font-family="Helvetica,sans-Serif" font-weight="bold" font-size="9.00">config</text>
</g>
<g id="clust3" class="cluster">
<title>cluster_src/modules</title>
<path fill="#ffffff" stroke="black" stroke-width="2" d="M90,-86C90,-86 336,-86 336,-86 342,-86 348,-92 348,-98 348,-98 348,-244 348,-244 348,-250 342,-256 336,-256 336,-256 90,-256 90,-256 84,-256 78,-250 78,-244 78,-244 78,-98 78,-98 78,-92 84,-86 90,-86"/>
<text text-anchor="middle" x="213" y="-243.45" font-family="Helvetica,sans-Serif" font-weight="bold" font-size="9.00">modules</text>
</g>
<!-- src/config/models.config.js -->
<g id="node1" class="node">
<title>src/config/models.config.js</title>
<g id="a_node1"><a xlink:href="src/config/models.config.js" xlink:title="models.config.js">
<path fill="#ffffcc" stroke="black" d="M250.71,-51.88C250.71,-51.88 180.54,-51.88 180.54,-51.88 177.58,-51.88 174.62,-48.92 174.62,-45.96 174.62,-45.96 174.62,-40.04 174.62,-40.04 174.62,-37.08 177.58,-34.12 180.54,-34.12 180.54,-34.12 250.71,-34.12 250.71,-34.12 253.67,-34.12 256.62,-37.08 256.62,-40.04 256.62,-40.04 256.62,-45.96 256.62,-45.96 256.62,-48.92 253.67,-51.88 250.71,-51.88"/>
<text text-anchor="start" x="182.62" y="-39.33" font-family="Helvetica,sans-Serif" font-size="9.00">models.config.js</text>
</a>
</g>
</g>
<!-- src/main.js -->
<g id="node2" class="node">
<title>src/main.js</title>
<g id="a_node2"><a xlink:href="src/main.js" xlink:title="main.js">
<path fill="#ffffcc" stroke="black" d="M64.08,-171.88C64.08,-171.88 21.92,-171.88 21.92,-171.88 18.96,-171.88 16,-168.92 16,-165.96 16,-165.96 16,-160.04 16,-160.04 16,-157.08 18.96,-154.12 21.92,-154.12 21.92,-154.12 64.08,-154.12 64.08,-154.12 67.04,-154.12 70,-157.08 70,-160.04 70,-160.04 70,-165.96 70,-165.96 70,-168.92 67.04,-171.88 64.08,-171.88"/>
<text text-anchor="start" x="28.38" y="-159.32" font-family="Helvetica,sans-Serif" font-size="9.00">main.js</text>
</a>
</g>
</g>
<!-- src/main.js&#45;&gt;src/config/models.config.js -->
<g id="edge1" class="edge">
<title>src/main.js&#45;&gt;src/config/models.config.js</title>
<path fill="none" stroke="#000000" stroke-width="2" stroke-opacity="0.200000" d="M45.3,-153.85C48.14,-137.26 56.46,-102.15 78,-83 102.1,-61.57 137.13,-51.59 165.69,-46.96"/>
<polygon fill="#000000" fill-opacity="0.200000" stroke="#000000" stroke-width="2" stroke-opacity="0.200000" points="165.7,-49.08 171.33,-46.13 165.09,-44.93 165.7,-49.08"/>
</g>
<!-- src/modules/assetManager.js -->
<g id="node3" class="node">
<title>src/modules/assetManager.js</title>
<g id="a_node3"><a xlink:href="src/modules/assetManager.js" xlink:title="assetManager.js">
<path fill="#ffffcc" stroke="black" d="M251.46,-139.88C251.46,-139.88 179.79,-139.88 179.79,-139.88 176.83,-139.88 173.88,-136.92 173.88,-133.96 173.88,-133.96 173.88,-128.04 173.88,-128.04 173.88,-125.08 176.83,-122.12 179.79,-122.12 179.79,-122.12 251.46,-122.12 251.46,-122.12 254.42,-122.12 257.38,-125.08 257.38,-128.04 257.38,-128.04 257.38,-133.96 257.38,-133.96 257.38,-136.92 254.42,-139.88 251.46,-139.88"/>
<text text-anchor="start" x="181.88" y="-127.33" font-family="Helvetica,sans-Serif" font-size="9.00">assetManager.js</text>
</a>
</g>
</g>
<!-- src/main.js&#45;&gt;src/modules/assetManager.js -->
<g id="edge2" class="edge">
<title>src/main.js&#45;&gt;src/modules/assetManager.js</title>
<path fill="none" stroke="#000000" stroke-width="2" stroke-opacity="0.200000" d="M61.59,-172.27C85.15,-183.27 127.23,-197.78 155.25,-178 167.58,-169.3 155.75,-156.46 166.62,-146 166.77,-145.86 166.91,-145.73 167.05,-145.6"/>
<polygon fill="#000000" fill-opacity="0.200000" stroke="#000000" stroke-width="2" stroke-opacity="0.200000" points="168.17,-147.38 171.78,-142.15 165.69,-143.99 168.17,-147.38"/>
</g>
<!-- src/modules/constants.js -->
<g id="node4" class="node">
<title>src/modules/constants.js</title>
<g id="a_node4"><a xlink:href="src/modules/constants.js" xlink:title="constants.js">
<path fill="#ffffcc" stroke="black" d="M334.08,-117.88C334.08,-117.88 281.92,-117.88 281.92,-117.88 278.96,-117.88 276,-114.92 276,-111.96 276,-111.96 276,-106.04 276,-106.04 276,-103.08 278.96,-100.12 281.92,-100.12 281.92,-100.12 334.08,-100.12 334.08,-100.12 337.04,-100.12 340,-103.08 340,-106.04 340,-106.04 340,-111.96 340,-111.96 340,-114.92 337.04,-117.88 334.08,-117.88"/>
<text text-anchor="start" x="284" y="-105.33" font-family="Helvetica,sans-Serif" font-size="9.00">constants.js</text>
</a>
</g>
</g>
<!-- src/main.js&#45;&gt;src/modules/constants.js -->
<g id="edge3" class="edge">
<title>src/main.js&#45;&gt;src/modules/constants.js</title>
<path fill="none" stroke="#000000" stroke-width="2" stroke-opacity="0.200000" d="M43.81,-153.88C43.87,-131.96 47.2,-75.92 78,-46 107.19,-17.64 126.26,-28.15 166.62,-23 209.83,-17.49 227.64,0.01 264.62,-23 288.54,-37.88 299.35,-70.66 303.94,-91.18"/>
<polygon fill="#000000" fill-opacity="0.200000" stroke="#000000" stroke-width="2" stroke-opacity="0.200000" points="301.85,-91.44 305.08,-96.91 305.97,-90.62 301.85,-91.44"/>
</g>
<!-- src/modules/difficultyManager.js -->
<g id="node5" class="node">
<title>src/modules/difficultyManager.js</title>
<g id="a_node5"><a xlink:href="src/modules/difficultyManager.js" xlink:title="difficultyManager.js">
<path fill="#ffffcc" stroke="black" d="M257.08,-169.88C257.08,-169.88 174.17,-169.88 174.17,-169.88 171.21,-169.88 168.25,-166.92 168.25,-163.96 168.25,-163.96 168.25,-158.04 168.25,-158.04 168.25,-155.08 171.21,-152.12 174.17,-152.12 174.17,-152.12 257.08,-152.12 257.08,-152.12 260.04,-152.12 263,-155.08 263,-158.04 263,-158.04 263,-163.96 263,-163.96 263,-166.92 260.04,-169.88 257.08,-169.88"/>
<text text-anchor="start" x="176.25" y="-157.32" font-family="Helvetica,sans-Serif" font-size="9.00">difficultyManager.js</text>
</a>
</g>
</g>
<!-- src/main.js&#45;&gt;src/modules/difficultyManager.js -->
<g id="edge4" class="edge">
<title>src/main.js&#45;&gt;src/modules/difficultyManager.js</title>
<path fill="none" stroke="#000000" stroke-width="2" stroke-opacity="0.200000" d="M52.55,-172.12C58.9,-178.2 68.15,-185.66 78,-189 110.52,-200.01 123.98,-203.19 155.25,-189 162.24,-185.83 160.19,-180.19 166.62,-176 167.57,-175.38 168.54,-174.79 169.54,-174.22"/>
<polygon fill="#000000" fill-opacity="0.200000" stroke="#000000" stroke-width="2" stroke-opacity="0.200000" points="170.34,-176.17 174.79,-171.63 168.48,-172.4 170.34,-176.17"/>
</g>
<!-- src/modules/eventEmitter.js -->
<g id="node6" class="node">
<title>src/modules/eventEmitter.js</title>
<g id="a_node6"><a xlink:href="src/modules/eventEmitter.js" xlink:title="eventEmitter.js">
<path fill="#ffffcc" stroke="black" d="M247.71,-199.88C247.71,-199.88 183.54,-199.88 183.54,-199.88 180.58,-199.88 177.62,-196.92 177.62,-193.96 177.62,-193.96 177.62,-188.04 177.62,-188.04 177.62,-185.08 180.58,-182.12 183.54,-182.12 183.54,-182.12 247.71,-182.12 247.71,-182.12 250.67,-182.12 253.62,-185.08 253.62,-188.04 253.62,-188.04 253.62,-193.96 253.62,-193.96 253.62,-196.92 250.67,-199.88 247.71,-199.88"/>
<text text-anchor="start" x="185.62" y="-187.32" font-family="Helvetica,sans-Serif" font-size="9.00">eventEmitter.js</text>
</a>
</g>
</g>
<!-- src/main.js&#45;&gt;src/modules/eventEmitter.js -->
<g id="edge5" class="edge">
<title>src/main.js&#45;&gt;src/modules/eventEmitter.js</title>
<path fill="none" stroke="#000000" stroke-width="2" stroke-opacity="0.200000" d="M49.71,-172.17C55.61,-180.68 65.67,-192.79 78,-198 108.2,-210.77 145.56,-207.73 173.58,-202.22"/>
<polygon fill="#000000" fill-opacity="0.200000" stroke="#000000" stroke-width="2" stroke-opacity="0.200000" points="173.93,-204.29 179.37,-200.99 173.06,-200.18 173.93,-204.29"/>
</g>
<!-- src/modules/gameState.js -->
<g id="node7" class="node">
<title>src/modules/gameState.js</title>
<g id="a_node7"><a xlink:href="src/modules/gameState.js" xlink:title="gameState.js">
<path fill="#ffffcc" stroke="black" d="M149.33,-171.88C149.33,-171.88 91.92,-171.88 91.92,-171.88 88.96,-171.88 86,-168.92 86,-165.96 86,-165.96 86,-160.04 86,-160.04 86,-157.08 88.96,-154.12 91.92,-154.12 91.92,-154.12 149.33,-154.12 149.33,-154.12 152.29,-154.12 155.25,-157.08 155.25,-160.04 155.25,-160.04 155.25,-165.96 155.25,-165.96 155.25,-168.92 152.29,-171.88 149.33,-171.88"/>
<text text-anchor="start" x="94" y="-159.32" font-family="Helvetica,sans-Serif" font-size="9.00">gameState.js</text>
</a>
</g>
</g>
<!-- src/main.js&#45;&gt;src/modules/gameState.js -->
<g id="edge6" class="edge">
<title>src/main.js&#45;&gt;src/modules/gameState.js</title>
<path fill="none" stroke="#000000" stroke-width="2" stroke-opacity="0.200000" d="M70.45,-163C72.61,-163 74.83,-163 77.07,-163"/>
<polygon fill="#000000" fill-opacity="0.200000" stroke="#000000" stroke-width="2" stroke-opacity="0.200000" points="76.72,-165.1 82.72,-163 76.72,-160.9 76.72,-165.1"/>
</g>
<!-- src/modules/obstacles.js -->
<g id="node8" class="node">
<title>src/modules/obstacles.js</title>
<g id="a_node8"><a xlink:href="src/modules/obstacles.js" xlink:title="obstacles.js">
<path fill="#ffffcc" stroke="black" d="M146.71,-141.88C146.71,-141.88 94.54,-141.88 94.54,-141.88 91.58,-141.88 88.62,-138.92 88.62,-135.96 88.62,-135.96 88.62,-130.04 88.62,-130.04 88.62,-127.08 91.58,-124.12 94.54,-124.12 94.54,-124.12 146.71,-124.12 146.71,-124.12 149.67,-124.12 152.62,-127.08 152.62,-130.04 152.62,-130.04 152.62,-135.96 152.62,-135.96 152.62,-138.92 149.67,-141.88 146.71,-141.88"/>
<text text-anchor="start" x="96.62" y="-129.32" font-family="Helvetica,sans-Serif" font-size="9.00">obstacles.js</text>
</a>
</g>
</g>
<!-- src/main.js&#45;&gt;src/modules/obstacles.js -->
<g id="edge7" class="edge">
<title>src/main.js&#45;&gt;src/modules/obstacles.js</title>
<path fill="none" stroke="#000000" stroke-width="2" stroke-opacity="0.200000" d="M64.4,-153.73C68.86,-151.78 73.57,-149.77 78,-148 80.27,-147.09 82.63,-146.17 85,-145.27"/>
<polygon fill="#000000" fill-opacity="0.200000" stroke="#000000" stroke-width="2" stroke-opacity="0.200000" points="85.37,-147.37 90.26,-143.31 83.91,-143.44 85.37,-147.37"/>
</g>
<!-- src/modules/player.js -->
<g id="node9" class="node">
<title>src/modules/player.js</title>
<g id="a_node9"><a xlink:href="src/modules/player.js" xlink:title="player.js">
<path fill="#ffffcc" stroke="black" d="M141.71,-111.88C141.71,-111.88 99.54,-111.88 99.54,-111.88 96.58,-111.88 93.62,-108.92 93.62,-105.96 93.62,-105.96 93.62,-100.04 93.62,-100.04 93.62,-97.08 96.58,-94.12 99.54,-94.12 99.54,-94.12 141.71,-94.12 141.71,-94.12 144.67,-94.12 147.62,-97.08 147.62,-100.04 147.62,-100.04 147.62,-105.96 147.62,-105.96 147.62,-108.92 144.67,-111.88 141.71,-111.88"/>
<text text-anchor="start" x="103.38" y="-99.33" font-family="Helvetica,sans-Serif" font-size="9.00">player.js</text>
</a>
</g>
</g>
<!-- src/main.js&#45;&gt;src/modules/player.js -->
<g id="edge8" class="edge">
<title>src/main.js&#45;&gt;src/modules/player.js</title>
<path fill="none" stroke="#000000" stroke-width="2" stroke-opacity="0.200000" d="M48.8,-153.8C54.5,-143.7 64.91,-127.64 78,-118 80.29,-116.31 82.78,-114.8 85.38,-113.45"/>
<polygon fill="#000000" fill-opacity="0.200000" stroke="#000000" stroke-width="2" stroke-opacity="0.200000" points="86,-115.48 90.6,-111.1 84.27,-111.65 86,-115.48"/>
</g>
<!-- src/modules/road.js -->
<g id="node10" class="node">
<title>src/modules/road.js</title>
<g id="a_node10"><a xlink:href="src/modules/road.js" xlink:title="road.js">
<path fill="#ffffcc" stroke="black" d="M236.71,-229.88C236.71,-229.88 194.54,-229.88 194.54,-229.88 191.58,-229.88 188.62,-226.92 188.62,-223.96 188.62,-223.96 188.62,-218.04 188.62,-218.04 188.62,-215.08 191.58,-212.12 194.54,-212.12 194.54,-212.12 236.71,-212.12 236.71,-212.12 239.67,-212.12 242.62,-215.08 242.62,-218.04 242.62,-218.04 242.62,-223.96 242.62,-223.96 242.62,-226.92 239.67,-229.88 236.71,-229.88"/>
<text text-anchor="start" x="201.75" y="-217.32" font-family="Helvetica,sans-Serif" font-size="9.00">road.js</text>
</a>
</g>
</g>
<!-- src/main.js&#45;&gt;src/modules/road.js -->
<g id="edge9" class="edge">
<title>src/main.js&#45;&gt;src/modules/road.js</title>
<path fill="none" stroke="#000000" stroke-width="2" stroke-opacity="0.200000" d="M48.53,-172.37C53.99,-182.54 64.18,-198.35 78,-206 109.08,-223.21 150.22,-225.47 179.21,-224.36"/>
<polygon fill="#000000" fill-opacity="0.200000" stroke="#000000" stroke-width="2" stroke-opacity="0.200000" points="179.26,-226.46 185.14,-224.05 179.04,-222.26 179.26,-226.46"/>
</g>
<!-- src/modules/difficultyManager.js&#45;&gt;src/modules/constants.js -->
<g id="edge10" class="edge">
<title>src/modules/difficultyManager.js&#45;&gt;src/modules/constants.js</title>
<path fill="none" stroke="#000000" stroke-width="2" stroke-opacity="0.200000" d="M252.45,-151.64C256.66,-150 260.82,-148.13 264.62,-146 274.8,-140.3 284.71,-131.87 292.38,-124.49"/>
<polygon fill="#000000" fill-opacity="0.200000" stroke="#000000" stroke-width="2" stroke-opacity="0.200000" points="293.85,-125.99 296.6,-120.26 290.87,-123.02 293.85,-125.99"/>
</g>
<!-- src/modules/gameState.js&#45;&gt;src/modules/eventEmitter.js -->
<g id="edge11" class="edge">
<title>src/modules/gameState.js&#45;&gt;src/modules/eventEmitter.js</title>
<path fill="none" stroke="#000000" stroke-width="2" stroke-opacity="0.200000" d="M152.59,-172.32C159.97,-174.54 167.93,-176.94 175.61,-179.25"/>
<polygon fill="#000000" fill-opacity="0.200000" stroke="#000000" stroke-width="2" stroke-opacity="0.200000" points="174.54,-181.13 180.89,-180.84 175.75,-177.1 174.54,-181.13"/>
</g>
<!-- src/modules/obstacles.js&#45;&gt;src/config/models.config.js -->
<g id="edge12" class="edge">
<title>src/modules/obstacles.js&#45;&gt;src/config/models.config.js</title>
<path fill="none" stroke="#000000" stroke-width="2" stroke-opacity="0.200000" d="M148.41,-123.69C150.94,-122.07 153.28,-120.19 155.25,-118 166.19,-105.84 157.46,-96.54 166.62,-83 173.37,-73.04 183.28,-64.2 192.35,-57.38"/>
<polygon fill="#000000" fill-opacity="0.200000" stroke="#000000" stroke-width="2" stroke-opacity="0.200000" points="193.56,-59.1 197.22,-53.9 191.12,-55.68 193.56,-59.1"/>
</g>
<!-- src/modules/obstacles.js&#45;&gt;src/modules/assetManager.js -->
<g id="edge13" class="edge">
<title>src/modules/obstacles.js&#45;&gt;src/modules/assetManager.js</title>
<path fill="none" stroke="#000000" stroke-width="2" stroke-opacity="0.200000" d="M153.11,-132.32C156.79,-132.24 160.6,-132.16 164.45,-132.08"/>
<polygon fill="#000000" fill-opacity="0.200000" stroke="#000000" stroke-width="2" stroke-opacity="0.200000" points="164.46,-134.18 170.42,-131.95 164.37,-129.98 164.46,-134.18"/>
</g>
<!-- src/modules/obstacles.js&#45;&gt;src/modules/constants.js -->
<g id="edge14" class="edge">
<title>src/modules/obstacles.js&#45;&gt;src/modules/constants.js</title>
<path fill="none" stroke="#000000" stroke-width="2" stroke-opacity="0.200000" d="M142.28,-123.65C149.79,-120.67 158.45,-117.7 166.62,-116 199.93,-109.06 238.59,-107.6 266.9,-107.71"/>
<polygon fill="#000000" fill-opacity="0.200000" stroke="#000000" stroke-width="2" stroke-opacity="0.200000" points="266.66,-109.81 272.68,-107.77 266.7,-105.61 266.66,-109.81"/>
</g>
<!-- src/modules/obstacles.js&#45;&gt;src/modules/difficultyManager.js -->
<g id="edge15" class="edge">
<title>src/modules/obstacles.js&#45;&gt;src/modules/difficultyManager.js</title>
<path fill="none" stroke="#000000" stroke-width="2" stroke-opacity="0.200000" d="M152.59,-142.32C159.97,-144.54 167.93,-146.94 175.61,-149.25"/>
<polygon fill="#000000" fill-opacity="0.200000" stroke="#000000" stroke-width="2" stroke-opacity="0.200000" points="174.54,-151.13 180.89,-150.84 175.75,-147.1 174.54,-151.13"/>
</g>
<!-- src/modules/player.js&#45;&gt;src/config/models.config.js -->
<g id="edge16" class="edge">
<title>src/modules/player.js&#45;&gt;src/config/models.config.js</title>
<path fill="none" stroke="#000000" stroke-width="2" stroke-opacity="0.200000" d="M148.05,-93.67C150.53,-92.53 152.97,-91.3 155.25,-90 170.94,-81.03 186.9,-68.14 198.32,-58.13"/>
<polygon fill="#000000" fill-opacity="0.200000" stroke="#000000" stroke-width="2" stroke-opacity="0.200000" points="199.47,-59.91 202.54,-54.35 196.67,-56.79 199.47,-59.91"/>
</g>
<!-- src/modules/player.js&#45;&gt;src/modules/assetManager.js -->
<g id="edge17" class="edge">
<title>src/modules/player.js&#45;&gt;src/modules/assetManager.js</title>
<path fill="none" stroke="#000000" stroke-width="2" stroke-opacity="0.200000" d="M148.03,-110.95C156.41,-113.47 165.87,-116.32 174.98,-119.06"/>
<polygon fill="#000000" fill-opacity="0.200000" stroke="#000000" stroke-width="2" stroke-opacity="0.200000" points="174.3,-121.05 180.65,-120.77 175.51,-117.03 174.3,-121.05"/>
</g>
<!-- src/modules/player.js&#45;&gt;src/modules/constants.js -->
<g id="edge18" class="edge">
<title>src/modules/player.js&#45;&gt;src/modules/constants.js</title>
<path fill="none" stroke="#000000" stroke-width="2" stroke-opacity="0.200000" d="M148,-102.74C176.71,-102.6 223.97,-102.8 264.62,-105 265.29,-105.04 265.96,-105.07 266.63,-105.11"/>
<polygon fill="#000000" fill-opacity="0.200000" stroke="#000000" stroke-width="2" stroke-opacity="0.200000" points="266.4,-107.2 272.53,-105.53 266.69,-103.01 266.4,-107.2"/>
</g>
<!-- src/modules/road.js&#45;&gt;src/modules/constants.js -->
<g id="edge19" class="edge">
<title>src/modules/road.js&#45;&gt;src/modules/constants.js</title>
<path fill="none" stroke="#000000" stroke-width="2" stroke-opacity="0.200000" d="M243.12,-217.02C250.76,-214.81 258.64,-211.36 264.62,-206 288.11,-184.95 299.15,-148.53 303.88,-126.81"/>
<polygon fill="#000000" fill-opacity="0.200000" stroke="#000000" stroke-width="2" stroke-opacity="0.200000" points="305.88,-127.49 304.99,-121.2 301.76,-126.68 305.88,-127.49"/>
</g>
</g>
</svg>
